<?xml version="1.0" encoding="iso-8859-1"?>
<!-- Uploaded to: SVG Repo, www.svgrepo.com, Generator: SVG Repo Mixer Tools -->
<svg version="1.1" id="Layer_1" xmlns="http://www.w3.org/2000/svg" xmlns:xlink="http://www.w3.org/1999/xlink" 
	 viewBox="0 0 512 512" xml:space="preserve">
<g>
	<path style="fill:#66BF00;" d="M362.889,307.307H123.457V179.04c0-18.891,15.314-34.205,34.205-34.205h171.023
		c18.891,0,34.205,15.314,34.205,34.205V307.307z"/>
	<path style="fill:#66BF00;" d="M414.196,409.921H72.15v-68.409c0-18.891,15.314-34.205,34.205-34.205h273.637
		c18.891,0,34.205,15.314,34.205,34.205V409.921z"/>
</g>
<path style="fill:#DDDAC5;" d="M431.299,444.125H55.048c-4.722,0-8.551-3.829-8.551-8.551v-17.102c0-4.722,3.829-8.551,8.551-8.551
	h376.251c4.722,0,8.551,3.829,8.551,8.551v17.102C439.85,440.296,436.021,444.125,431.299,444.125z"/>
<path style="fill:#F4F3EC;" d="M439.85,418.472c0-4.722-3.829-8.551-8.551-8.551H55.048c-4.722,0-8.551,3.829-8.551,8.551v8.907
	H439.85V418.472z"/>
<g>
	<rect x="72.15" y="444.125" style="fill:#A39B65;" width="68.409" height="59.858"/>
	<rect x="345.787" y="444.125" style="fill:#A39B65;" width="68.409" height="59.858"/>
</g>
<g>
	<rect x="345.787" y="444.125" style="fill:#8C823F;" width="68.409" height="25.653"/>
	<rect x="72.15" y="444.125" style="fill:#8C823F;" width="68.409" height="25.653"/>
</g>
<g>
	<path style="fill:#66BF00;" d="M414.196,281.653h-51.307v-34.205h42.756c4.722,0,8.551,3.829,8.551,8.551V281.653z"/>
	<path style="fill:#66BF00;" d="M123.457,281.653H72.15V256c0-4.722,3.829-8.551,8.551-8.551h42.756V281.653z"/>
</g>
<rect x="72.15" y="392.818" style="fill:#58AB23;" width="342.046" height="17.102"/>
<path style="fill:#E8E6D9;" d="M157.662,170.489h171.023c4.722,0,8.551,3.829,8.551,8.551v128.267H149.111V179.04
	C149.111,174.317,152.939,170.489,157.662,170.489z"/>
<g>
	<path style="fill:#D1CDB2;" d="M157.662,170.489c-4.722,0-8.551,3.829-8.551,8.551v79.633l88.184-88.184H157.662z"/>
	<path style="fill:#D1CDB2;" d="M332.908,171.61L197.211,307.307h56.117l83.908-83.908V179.04
		C337.236,175.854,335.49,173.082,332.908,171.61z"/>
	<polygon style="fill:#D1CDB2;" points="337.236,307.307 337.236,254.397 284.326,307.307 	"/>
</g>
<g>
	<circle style="fill:#E8E6D9;" cx="123.457" cy="358.614" r="25.653"/>
	<circle style="fill:#E8E6D9;" cx="362.889" cy="358.614" r="25.653"/>
</g>
<path style="fill:#FFC552;" d="M251.724,110.63h-76.96V8.017h76.96c18.891,0,34.205,15.314,34.205,34.205v34.205
	C285.929,95.316,270.615,110.63,251.724,110.63z"/>
<path style="fill:#FC9C47;" d="M268.827,93.528h-76.96V8.017h-17.102V110.63h76.96c13.873,0,25.807-8.264,31.174-20.133
	C278.605,92.439,273.845,93.528,268.827,93.528z"/>
<path d="M123.457,324.944c-18.566,0-33.67,15.105-33.67,33.67c0,18.566,15.105,33.67,33.67,33.67s33.67-15.105,33.67-33.67
	C157.127,340.048,142.023,324.944,123.457,324.944z M123.457,376.251c-9.725,0-17.637-7.912-17.637-17.637
	c0-9.725,7.912-17.637,17.637-17.637s17.637,7.912,17.637,17.637C141.094,368.339,133.182,376.251,123.457,376.251z"/>
<path d="M362.889,324.944c-18.566,0-33.67,15.105-33.67,33.67c0,18.566,15.105,33.67,33.67,33.67c18.566,0,33.67-15.105,33.67-33.67
	C396.56,340.048,381.455,324.944,362.889,324.944z M362.889,376.251c-9.725,0-17.637-7.912-17.637-17.637
	c0-9.725,7.912-17.637,17.637-17.637c9.725,0,17.637,7.912,17.637,17.637C380.526,368.339,372.614,376.251,362.889,376.251z"/>
<path d="M303.031,324.944H183.315c-4.428,0-8.017,3.589-8.017,8.017c0,4.427,3.588,8.017,8.017,8.017h119.716
	c4.428,0,8.017-3.589,8.017-8.017C311.048,328.533,307.46,324.944,303.031,324.944z"/>
<path d="M303.031,350.597H183.315c-4.428,0-8.017,3.589-8.017,8.017c0,4.427,3.588,8.017,8.017,8.017h119.716
	c4.428,0,8.017-3.589,8.017-8.017C311.048,354.186,307.46,350.597,303.031,350.597z"/>
<path d="M303.031,376.251H183.315c-4.428,0-8.017,3.589-8.017,8.017c0,4.427,3.588,8.017,8.017,8.017h119.716
	c4.428,0,8.017-3.589,8.017-8.017C311.048,379.84,307.46,376.251,303.031,376.251z"/>
<path d="M431.299,59.858H294.48c-0.181,0-0.357,0.015-0.534,0.027V42.221C293.946,18.941,275.005,0,251.724,0h-76.96
	c-4.428,0-8.017,3.589-8.017,8.017v17.637h-43.29c-4.428,0-8.017,3.589-8.017,8.017s3.588,8.017,8.017,8.017h43.29V76.96h-43.29
	c-4.428,0-8.017,3.589-8.017,8.017c0,4.427,3.588,8.017,8.017,8.017h43.29v17.637c0,4.427,3.588,8.017,8.017,8.017h76.96
	c23.281,0,42.221-18.941,42.221-42.221v-0.561c0.177,0.012,0.354,0.027,0.534,0.027h136.818c14.441,0,26.188,11.748,26.188,26.188
	v205.228c0,14.44-11.747,26.188-26.188,26.188h-8.551c-0.439,0-0.868,0.045-1.287,0.112c-3.712-19.514-20.89-34.317-41.469-34.317
	h-9.086v-9.62h43.29c4.428,0,8.017-3.589,8.017-8.017V256c0-9.136-7.432-16.568-16.568-16.568h-34.739V179.04
	c0-23.281-18.941-42.221-42.221-42.221H157.662c-23.281,0-42.221,18.941-42.221,42.221v60.392H80.701
	c-9.136,0-16.568,7.432-16.568,16.568v25.653c0,4.427,3.588,8.017,8.017,8.017h43.29v9.62h-9.086
	c-23.281,0-42.221,18.941-42.221,42.221v60.392h-9.086c-9.136,0-16.568,7.432-16.568,16.568v17.102
	c0,9.136,7.432,16.568,16.568,16.568h9.086v43.29c0,9.136,7.432,16.568,16.568,16.568h51.307c9.136,0,16.568-7.432,16.568-16.568
	v-43.29h34.739c4.428,0,8.017-3.589,8.017-8.017c0-4.427-3.588-8.017-8.017-8.017H55.048c-0.294,0-0.534-0.239-0.534-0.534v-17.102
	c0-0.295,0.24-0.534,0.534-0.534h376.251c0.294,0,0.534,0.239,0.534,0.534v17.102c0,0.295-0.241,0.534-0.534,0.534H217.52
	c-4.428,0-8.017,3.589-8.017,8.017c0,4.427,3.588,8.017,8.017,8.017H337.77v43.29c0,9.136,7.432,16.568,16.568,16.568h51.307
	c9.136,0,16.568-7.432,16.568-16.568v-43.29h9.086c9.136,0,16.568-7.432,16.568-16.568v-17.102c0-9.136-7.432-16.568-16.568-16.568
	h-9.086v-52.402c0.177,0.012,0.354,0.027,0.534,0.027h8.551c23.28,0,42.221-18.941,42.221-42.221V102.079
	C473.52,78.799,454.579,59.858,431.299,59.858z M277.912,76.426c0,14.44-11.747,26.188-26.188,26.188h-68.944v-86.58h68.944
	c14.441,0,26.188,11.748,26.188,26.188V76.426z M132.543,452.142v43.29c0,0.295-0.24,0.534-0.534,0.534H80.701
	c-0.294,0-0.534-0.239-0.534-0.534v-43.29H132.543z M406.18,495.432c0,0.295-0.24,0.534-0.534,0.534h-51.307
	c-0.294,0-0.534-0.239-0.534-0.534v-43.29h52.376V495.432z M405.645,255.466c0.294,0,0.534,0.239,0.534,0.534v17.637h-35.273
	v-18.171H405.645z M80.167,273.637V256c0-0.295,0.241-0.534,0.534-0.534h34.739v18.171H80.167z M131.474,281.653v-34.205V179.04
	c0-14.44,11.747-26.188,26.188-26.188h171.023c14.441,0,26.188,11.748,26.188,26.188v68.409v34.205v17.637h-9.62V179.04
	c0-9.136-7.432-16.568-16.568-16.568h-25.653c-4.428,0-8.017,3.589-8.017,8.017s3.588,8.017,8.017,8.017h25.653
	c0.294,0,0.534,0.239,0.534,0.534V299.29H157.127V179.04c0-0.295,0.241-0.534,0.534-0.534h111.165c4.428,0,8.017-3.589,8.017-8.017
	s-3.588-8.017-8.017-8.017H157.662c-9.136,0-16.568,7.432-16.568,16.568V299.29h-9.62V281.653z M80.167,401.904v-60.392
	c0-14.44,11.747-26.188,26.188-26.188h273.637c14.441,0,26.188,11.748,26.188,26.188v60.392H80.167z"/>
<path d="M243.173,51.307h-10.674l8.794-13.19c2.456-3.683,1.46-8.661-2.223-11.116c-3.682-2.456-8.661-1.461-11.116,2.223
	l-17.102,25.653c-1.64,2.46-1.794,5.622-0.398,8.229c1.393,2.607,4.11,4.234,7.066,4.234h6.3l-11.968,11.968
	c-2.918,2.918-3.113,7.74-0.425,10.877c2.998,3.502,8.503,3.72,11.764,0.46l25.653-25.653c2.293-2.293,2.978-5.741,1.737-8.736
	C249.34,53.26,246.415,51.307,243.173,51.307z"/>
</svg>